# xmcd
#
# Track frame offsets:
#	150
#	9741
#	19608
#	29702
#	41979
#	52195
#	61676
#	73230
#	83826
#	91148
#	102694
#	113650
#
# Disc length: 1666 seconds
#
# Revision: 1
# Processed by: cddbd v1.5.2PL0 Copyright (c) Steve Scherf et al.
# Submitted via: audiograbber 1.83.01
#
DISCID=a406800c
DTITLE=Dave Dudley - Lonelyville
DYEAR=1900
DGENRE=Country
TTITLE0=Lonelyville
TTITLE1=Have you ever been lonely
TTITLE2=Oh lonesome me
TTITLE3=Lonely street
TTITLE4=Seven lonely days
TTITLE5=At the junction
TTITLE6=Time and place
TTITLE7=Journey to the center of your heart
TTITLE8=Lonely corner
TTITLE9=That's what it's like to be lonesome
TTITLE10=Coffee coffee coffee
TTITLE11=Just call me lonesome
EXTD=
EXTT0=
EXTT1=
EXTT2=
EXTT3=
EXTT4=
EXTT5=
EXTT6=
EXTT7=
EXTT8=
EXTT9=
EXTT10=
EXTT11=
PLAYORDER=
